<?xml version="1.0" encoding="utf-8"?>
<svg version="1.1" xmlns:xlink="http://www.w3.org/1999/xlink" width="12px" height="12px" viewBox="367 411.5  12 12" xmlns="http://www.w3.org/2000/svg">
  <path d="M 373 411.5  C 376.36 411.5  379 414.14  379 417.5  C 379 420.86  376.36 423.5  373 423.5  C 369.64 423.5  367 420.86  367 417.5  C 367 414.14  369.64 411.5  373 411.5  Z " fill-rule="nonzero" fill="#ffffff" stroke="none" />
  <path d="M 373 412  C 376.08 412  378.5 414.42  378.5 417.5  C 378.5 420.58  376.08 423  373 423  C 369.92 423  367.5 420.58  367.5 417.5  C 367.5 414.42  369.92 412  373 412  Z " stroke-width="1" stroke="#797979" fill="none" />
  <path d="M 373 420.5  C 371.32 420.5  370 419.18  370 417.5  C 370 415.82  371.32 414.5  373 414.5  C 374.68 414.5  376 415.82  376 417.5  C 376 419.18  374.68 420.5  373 420.5  " fill-rule="nonzero" fill="#797979" stroke="none" />
</svg>