<?xml version="1.0" encoding="utf-8"?>
<svg version="1.1" xmlns:xlink="http://www.w3.org/1999/xlink" width="12px" height="12px" viewBox="581 411.5  12 12" xmlns="http://www.w3.org/2000/svg">
  <path d="M 587 411.5  C 590.36 411.5  593 414.14  593 417.5  C 593 420.86  590.36 423.5  587 423.5  C 583.64 423.5  581 420.86  581 417.5  C 581 414.14  583.64 411.5  587 411.5  Z " fill-rule="nonzero" fill="#ffffff" stroke="none" />
  <path d="M 587 412  C 590.08 412  592.5 414.42  592.5 417.5  C 592.5 420.58  590.08 423  587 423  C 583.92 423  581.5 420.58  581.5 417.5  C 581.5 414.42  583.92 412  587 412  Z " stroke-width="1" stroke="#797979" fill="none" />
  <path d="M 587 420.5  C 585.32 420.5  584 419.18  584 417.5  C 584 415.82  585.32 414.5  587 414.5  C 588.68 414.5  590 415.82  590 417.5  C 590 419.18  588.68 420.5  587 420.5  " fill-rule="nonzero" fill="#797979" stroke="none" />
</svg>